# xmcd
#
# Track frame offsets:
#	150
#	13256
#	32156
#	54612
#	73241
#	85452
#	107149
#	121321
#	144331
#	166981
#	199201
#	221494
#	241189
#	261017
#	277129
#	293305
#	310551
#	327168
#	340666
#
# Disc length: 4790 seconds
#
# Revision: 1
# Processed by: cddbd v1.5.2PL0 Copyright (c) Steve Scherf et al.
# Submitted via: audiograbber 1.83.01
#
DISCID=1912b413
DTITLE=Eric Clapton - Complete Clapton CD1/2
DYEAR=2007
DGENRE=Blues
TTITLE0=I Feel Free
TTITLE1=Sunshine Of Your Love
TTITLE2=White Room
TTITLE3=Crossroads (Live At Winterland)
TTITLE4=Badge
TTITLE5=Presence Of The Lord
TTITLE6=After Midnight
TTITLE7=Let It Rain
TTITLE8=Bell Bottom Blues
TTITLE9=Layla
TTITLE10=Let It Grow
TTITLE11=I Shot The Sheriff
TTITLE12=Knockin On Heavens Door
TTITLE13=Hello Old Friend
TTITLE14=Cocaine
TTITLE15=Lay Down Sally
TTITLE16=Wonderful Tonight
TTITLE17=Promises
TTITLE18=I Cant Stand It
EXTD=
EXTT0=
EXTT1=
EXTT2=
EXTT3=
EXTT4=
EXTT5=
EXTT6=
EXTT7=
EXTT8=
EXTT9=
EXTT10=
EXTT11=
EXTT12=
EXTT13=
EXTT14=
EXTT15=
EXTT16=
EXTT17=
EXTT18=
PLAYORDER=
